<svg xmlns="http://www.w3.org/2000/svg" viewBox="0 0 719.96 792.71"><title>mesh-balise</title><g aria-hidden="true" fill="none" stroke="#a6ad78" stroke-miterlimit="10" stroke-width="1.5"><path d="M854,369.8,923,356a110,110,0,0,0,110,10l219,107c-27.27-2.47-47,8.5-48,18s15.8,24.51,43,28L960,585a121.67,121.67,0,0,0-134-18L621,448q70.35-5.36,72-19,1.14-9.5-31-23l119.93-23.34,24.75-4.85" transform="translate(-581.89 -134.93)" /><line x1="224.8" y1="242.88" x2="272.11" y2="234.87" /><path d="M582.39,489.33V747.11L821.56,908.89l22.88,12.89a99.51,99.51,0,0,0,58.67,1.78l42.67-11.12,290.66-81.33,42.23-15.55a18.57,18.57,0,0,0,8.89-9.34,17.62,17.62,0,0,0,1.27-7.25l12.5-251.86" transform="translate(-581.89 -134.93)" /><path d="M1298,528l3.33,3.56,0,15.55a14.47,14.47,0,0,1-3.55,10.22,13.89,13.89,0,0,1-6.45,4l-43.33,12-288,68a174.75,174.75,0,0,1-20,6.23,179.34,179.34,0,0,1-22.22,4,214.51,214.51,0,0,1-69.11-6.89,72.63,72.63,0,0,1-30-17.34l-236.28-138V462.67" transform="translate(-581.89 -134.93)" /><path d="M826,567l-4.44,6.33V610a75.79,75.79,0,0,0,25.33,17.56c9.9,4.14,18,5,33.11,6.44a220.56,220.56,0,0,0,34.22,1.11A214.1,214.1,0,0,0,959.56,628l.44-43" transform="translate(-581.89 -134.93)" /><path d="M620.21,447.82l-5.67,2.44.13,39.07L584,468.44a8.52,8.52,0,0,1-.89-8.44,23.19,23.19,0,0,1,12-9.11L616,442.67" transform="translate(-581.89 -134.93)" /><polyline points="88.92 405.07 73.11 416.4 137.11 457.07 166.54 450.4" /><polyline points="73.11 416.4 73.11 519.07 137.11 564.07 173.45 552.74 176.28 457.07" /><line x1="137.11" y1="564.07" x2="137.11" y2="457.07" /><path d="M957.78,665.11l-8.67,213.56a17.55,17.55,0,0,0,4.22,11.11A18.32,18.32,0,0,0,964,895.33a23.22,23.22,0,0,0,11.11-.44l230.22-66c4.67-1.3,17.41-1.71,26-10.22,6.73-6.67,6.78-16.61,8.45-20.89l7.11-210a11.42,11.42,0,0,0-2.45-6.67c-3.71-4.54-11.44-5.71-19-2.44L991.11,634c-3.5.86-8.6,2.21-14.67,4.22-6.45,2.14-9.72,3.24-11.87,4.95C958,648.41,957.4,658.61,957.78,665.11Z" transform="translate(-581.89 -134.93)" /><circle cx="406.78" cy="537.74" r="20.67" /><circle cx="398.11" cy="730.4" r="16.67" /><ellipse cx="637.78" cy="476.4" rx="17" ry="19.33" /><ellipse cx="630.11" cy="664.07" rx="19.33" ry="19.67" /><path d="M1246.16,518.89,1252,518v36.89a80.12,80.12,0,0,0,31.37-6.7c2.2-1,4.26-2,6.19-3.08a15.26,15.26,0,0,0,6.88-20.44l-6.66-6.67-7.11-5.8" transform="translate(-581.89 -134.93)" /><ellipse cx="62.28" cy="287.74" rx="28.17" ry="10.67" /><ellipse cx="314.11" cy="438.9" rx="31" ry="11.17" /><ellipse cx="396.78" cy="228.57" rx="26.67" ry="9.17" /><ellipse cx="671.11" cy="357.9" rx="29.67" ry="12.83" /><line x1="423.45" y1="228.57" x2="423.45" y2="239.66" /><line x1="370.11" y1="228.57" x2="370.11" y2="235.73" /><line x1="345.11" y1="438.9" x2="345.11" y2="499.18" /><line x1="283.11" y1="438.9" x2="283.11" y2="497.4" /><line x1="700.78" y1="357.9" x2="701.49" y2="413.26" /><line x1="641.45" y1="357.9" x2="641.45" y2="377.27" /><line x1="90.45" y1="287.74" x2="90.45" y2="306.11" /><line x1="34.11" y1="287.74" x2="34.11" y2="314.7" /><line x1="80.11" y1="271.07" x2="80.11" y2="279.48" /><path d="M821.56,610,839,602a81,81,0,0,1,26-5" transform="translate(-581.89 -134.93)" /><path d="M927,597a59.75,59.75,0,0,1,32.56,31" transform="translate(-581.89 -134.93)" /><line x1="671.7" y1="338.24" x2="671.7" y2="345.24" /><path d="M803.91,449.63,815.33,154c4.62-13.51,14.23-20.74,23.23-18,10.92,3.33,15.18,19.61,15.44,20.66v293" transform="translate(-581.89 -134.93)" /><path d="M942.67,367.08a19.19,19.19,0,0,1,9.33-1.33" transform="translate(-581.89 -134.93)" /><path d="M1005.33,369.67a12,12,0,0,1,4.59.91,11.92,11.92,0,0,1,3.54,2.28" transform="translate(-581.89 -134.93)" /><path d="M804.24,441a6.44,6.44,0,0,0-2.91,2.46,6.66,6.66,0,0,0-.82,4.82c0,6.31,12.91,11.42,28.83,11.42s28.83-5.11,28.83-11.42a4.89,4.89,0,0,0-.67-3.32,5,5,0,0,0-3.31-2.17" transform="translate(-581.89 -134.93)" /></g></svg>